<?xml version="1.0" encoding="utf-8"?><svg viewBox="0 0 40 41" xmlns="http://www.w3.org/2000/svg" xmlns:xlink="http://www.w3.org/1999/xlink"><style>:root>svg{display:none}:root>svg:target{display:block}</style><svg fill="none" viewBox="0 0 12 12" id="De" xmlns="http://www.w3.org/2000/svg"><mask id="aa" style="mask-type:alpha" maskUnits="userSpaceOnUse" x="0" y="0" width="12" height="12"><circle cx="6" cy="6" r="6" fill="#D9D9D9"/></mask><g mask="url(#aa)"><path d="M-3.536 8.421h16.962v4.21H-3.536v-4.21z" fill="#FFCE00"/><path d="M-3.536 0h16.962v4.21H-3.536V0z" fill="#000"/><path d="M-3.536 4.21h16.962v4.21H-3.536V4.21z" fill="#D00"/></g></svg><svg fill="none" viewBox="0 0 12 12" id="En" xmlns="http://www.w3.org/2000/svg"><mask id="ba" style="mask-type:alpha" maskUnits="userSpaceOnUse" x="0" y="0" width="12" height="12"><circle cx="6" cy="6" r="6" fill="#D9D9D9"/></mask><g mask="url(#ba)"><path d="M-6.947 10.316h29.684v7.369H-6.947v-7.369z" fill="#FFCE00"/><path d="M-6.947-4.42h29.684v7.368H-6.947v-7.369z" fill="#000"/><path d="M-6.947 2.947h29.684v7.369H-6.947V2.947z" fill="#D00"/><path d="M-2.526 0h16.962v12.632H-2.526V0z" fill="#012169"/><path d="M-.539 0l6.467 4.763L12.368 0h2.068v1.632l-6.361 4.71 6.36 4.684v1.606h-2.12l-6.36-4.71-6.335 4.71h-2.146v-1.58l6.334-4.684-6.334-4.684V0H-.54z" fill="#fff"/><path d="M8.711 7.395l5.725 4.184v1.053L7.253 7.395h1.458zm-4.877.526l.16.921-5.09 3.79h-1.43l6.36-4.71zM14.436 0v.079l-6.6 4.947.053-1.158L13.111 0h1.325zM-2.526 0l6.334 4.632h-1.59l-4.744-3.527V0z" fill="#C8102E"/><path d="M3.86 0v12.632h4.242V0H3.86zm-6.386 4.21v4.211h16.962v-4.21H-2.526z" fill="#fff"/><path d="M-2.526 5.079v2.526h16.962V5.08H-2.526zM4.709 0v12.632h2.544V0H4.71z" fill="#C8102E"/></g></svg><svg fill="none" viewBox="0 0 12 12" id="Fr" xmlns="http://www.w3.org/2000/svg"><mask id="ca" style="mask-type:alpha" maskUnits="userSpaceOnUse" x="0" y="0" width="12" height="12"><circle cx="6" cy="6" r="6" fill="#D9D9D9"/></mask><g mask="url(#ca)"><path d="M-6.947 10.316h29.684v7.369H-6.947v-7.369z" fill="#FFCE00"/><path d="M-6.947-4.42h29.684v7.368H-6.947v-7.369z" fill="#000"/><path d="M-6.947 2.947h29.684v7.369H-6.947V2.947z" fill="#D00"/><path fill-rule="evenodd" clip-rule="evenodd" d="M-2.526 0h17.323v12.632H-2.526V0z" fill="#fff"/><path fill-rule="evenodd" clip-rule="evenodd" d="M-2.526 0h5.773v12.632h-5.773V0z" fill="#002654"/><path fill-rule="evenodd" clip-rule="evenodd" d="M9.022 0h5.774v12.632H9.022V0z" fill="#CE1126"/></g></svg><svg fill="none" viewBox="0 0 40 41" id="Instagram" xmlns="http://www.w3.org/2000/svg"><circle cx="20" cy="20.8" r="19.5" stroke="#FF7C40"/><path d="M16.445 14.425V25.8h-1.96V14.425h1.96zm7.664 2.922h1.711v8.218c0 .76-.161 1.407-.484 1.938a3.113 3.113 0 01-1.352 1.21c-.578.282-1.247.423-2.007.423-.323 0-.683-.047-1.079-.14a4.418 4.418 0 01-1.14-.454 2.827 2.827 0 01-.914-.805l.883-1.11c.302.36.635.623 1 .79.364.167.747.25 1.148.25.432 0 .8-.08 1.102-.242.307-.156.544-.388.71-.695.167-.308.25-.683.25-1.125V19.26l.172-1.914zm-5.742 4.32v-.164c0-.64.078-1.224.235-1.75.156-.531.38-.987.671-1.367.292-.386.646-.68 1.063-.883a3.12 3.12 0 011.414-.313c.547 0 1.013.1 1.398.297.391.198.717.482.977.852.26.364.463.802.61 1.312.15.506.262 1.068.335 1.688v.523a8.457 8.457 0 01-.343 1.657c-.162.5-.375.932-.641 1.296a2.734 2.734 0 01-.984.844c-.386.198-.842.297-1.368.297a3.02 3.02 0 01-1.398-.32 3.183 3.183 0 01-1.063-.899 4.255 4.255 0 01-.671-1.36 5.983 5.983 0 01-.235-1.71zm1.883-.164v.164c0 .385.037.745.11 1.078.078.333.195.628.35.883.162.25.366.448.61.594.25.14.545.21.883.21.443 0 .805-.093 1.086-.28a1.82 1.82 0 00.656-.758c.157-.323.266-.683.328-1.079v-1.414a3.448 3.448 0 00-.195-.859 2.297 2.297 0 00-.383-.695 1.598 1.598 0 00-.61-.47 2.028 2.028 0 00-.866-.17c-.339 0-.633.072-.883.218-.25.146-.456.346-.617.601a2.973 2.973 0 00-.352.891c-.078.338-.117.7-.117 1.086z" fill="#FF7C40"/></svg><svg fill="none" viewBox="0 0 40 41" id="facebook" xmlns="http://www.w3.org/2000/svg"><circle cx="20" cy="20.8" r="19.5" stroke="#FF7C40"/><path d="M14.21 14.425V25.8h-1.96V14.425h1.96zm4.642 4.976v1.555H13.71v-1.555h5.14zm.648-4.976v1.562h-5.79v-1.562h5.79zm1.383-.625h1.883v10.195l-.18 1.805h-1.703v-12zm7.398 7.695v.164c0 .625-.07 1.2-.21 1.727-.136.52-.344.974-.626 1.36-.276.385-.62.684-1.03.898-.407.208-.878.312-1.415.312-.526 0-.984-.099-1.375-.297a2.734 2.734 0 01-.984-.844 4.68 4.68 0 01-.633-1.304 8.622 8.622 0 01-.344-1.672v-.524a8.461 8.461 0 01.344-1.671 4.68 4.68 0 01.633-1.305c.265-.37.59-.654.976-.852.39-.198.846-.297 1.367-.297.542 0 1.019.105 1.43.313.417.208.763.505 1.04.89.275.38.48.834.616 1.36.14.526.211 1.107.211 1.742zm-1.883.164v-.164c0-.38-.03-.737-.093-1.07a2.812 2.812 0 00-.313-.89 1.566 1.566 0 00-.578-.602c-.24-.151-.539-.227-.898-.227-.334 0-.62.057-.86.172-.24.114-.44.27-.601.469-.162.198-.29.427-.383.687-.089.26-.149.542-.18.844v1.414c.047.39.146.75.297 1.078.156.323.375.583.656.781.282.193.643.29 1.086.29.35 0 .643-.07.883-.211s.43-.336.57-.586c.146-.256.25-.552.313-.891.068-.339.101-.703.101-1.094z" fill="#FF7C40"/></svg><svg viewBox="0 0 17 17" id="link-plus" xmlns="http://www.w3.org/2000/svg"><path d="M16.498 9.603v-1.8h-7.14V.662h-1.8v7.14H.42v1.8h7.138v7.138h1.8V9.603h7.14z"/></svg><svg viewBox="0 0 20 25" id="linkedin" xmlns="http://www.w3.org/2000/svg"><path d="M18.571 2.3H1.424C.638 2.3 0 2.98 0 3.814v17.972C0 22.62.638 23.3 1.424 23.3h17.147c.786 0 1.429-.68 1.429-1.514V3.814c0-.835-.643-1.514-1.429-1.514zm-12.526 18H3.08V10.278h2.97V20.3h-.005zM4.563 8.91c-.951 0-1.72-.812-1.72-1.806 0-.993.769-1.804 1.72-1.804.946 0 1.718.81 1.718 1.804 0 .999-.768 1.805-1.718 1.805zM17.155 20.3h-2.964v-4.875c0-1.163-.022-2.658-1.54-2.658-1.545 0-1.781 1.266-1.781 2.573v4.96H7.905V10.278h2.844v1.369h.04c.398-.788 1.366-1.617 2.808-1.617 3 0 3.558 2.076 3.558 4.776V20.3z"/></svg><svg viewBox="0 0 33 17" id="services-scroll-arrow" xmlns="http://www.w3.org/2000/svg"><path d="M16.5 7.901L32.813.313 16.5 16.626.187.313 16.5 7.901z"/></svg></svg>